<svg width="160" height="49" viewBox="0 0 160 49" fill="none" xmlns="http://www.w3.org/2000/svg">
<g clip-path="url(#clip0_386_6402)">
<path fill-rule="evenodd" clip-rule="evenodd" d="M24.6081 32.5692C14.2503 39.461 15.742 43.3046 15.8999 43.5396C15.4042 43.119 -0.865678 32.2595 14.4625 19.8288C25.8187 10.6197 22.4494 7.84634 22.1926 6.20996C22.1926 6.20996 30.7441 15.2132 20.2599 24.2219C15.226 28.5481 14.2932 30.2146 14.4625 33.448C14.4625 33.448 17.5277 29.309 24.125 25.9795C29.2387 23.3988 29.3476 17.6856 28.6611 15.8246C29.7401 17.9468 33.4986 26.6531 24.6081 32.5692ZM15.9121 43.5521C15.9104 43.5536 15.906 43.5484 15.8999 43.5396C15.9084 43.5466 15.9129 43.551 15.9121 43.5521ZM28.4728 15.4356C28.54 15.5336 28.6032 15.6669 28.6611 15.8246C28.4359 15.3815 28.3246 15.2187 28.4728 15.4356ZM12.0842 16.5968C4.13299 22.9225 6.71205 31.9366 6.71205 31.9366C-1.41619 15.488 16.886 6.84796 16.8147 6.93046C17.9257 9.77783 15.3219 14.0209 12.0842 16.5968Z" fill="#D02937"/>
</g>
<path fill-rule="evenodd" clip-rule="evenodd" d="M155.419 32.0121C153.423 33.4497 150.912 34.1682 147.884 34.1682C144.857 34.1682 142.346 33.4497 140.35 32.0121C137.923 30.2788 136.71 27.9111 136.71 24.9093C136.71 21.8759 137.923 19.5084 140.35 17.8066C142.357 16.401 144.857 15.682 147.851 15.6503C150.878 15.6503 153.401 16.3693 155.419 17.8066C157.834 19.5401 159.042 21.9551 159.042 25.052C159.042 27.9589 157.834 30.2788 155.419 32.0121ZM152.684 20.7714C151.435 19.6194 149.83 19.0327 147.868 19.0114C145.905 19.0114 144.305 19.5981 143.069 20.7714C141.923 21.8707 141.35 23.2501 141.35 24.9093C141.35 26.5582 141.923 27.9322 143.069 29.0314C144.305 30.2153 145.911 30.8071 147.884 30.8071C149.847 30.8071 151.447 30.2153 152.684 29.0314C153.829 27.9429 154.402 26.5953 154.402 24.9885C154.402 23.2446 153.829 21.839 152.684 20.7714ZM133.231 34.0177C133.044 33.8643 132.769 33.7879 132.406 33.7879H115.568V32.8366L126.656 19.2492H117.437C117.074 19.2492 116.803 19.3221 116.622 19.4677C116.44 19.6134 116.288 19.879 116.163 20.264H115.704V15.0161H116.163C116.276 15.3967 116.427 15.6609 116.614 15.8088C116.8 15.9569 117.075 16.0309 117.438 16.0309H133.954V16.8076L122.954 30.5693H132.389C132.752 30.5693 133.024 30.494 133.206 30.3432C133.387 30.1922 133.54 29.9296 133.665 29.5547H134.124V34.8024H133.665C133.563 34.4323 133.418 34.1707 133.231 34.0177ZM112.152 34.0177C111.96 33.8643 111.688 33.7879 111.337 33.7879H93.835V33.3438C94.2314 33.2487 94.5119 33.1115 94.6762 32.9316C94.8404 32.752 94.9228 32.4984 94.9228 32.1707V17.6481C94.9228 17.3205 94.8433 17.0721 94.6848 16.9029C94.5259 16.7339 94.2429 16.5911 93.835 16.4747V16.0309H110.81C111.172 16.0309 111.447 15.9569 111.634 15.8088C111.821 15.6609 111.971 15.3967 112.084 15.0161H112.543V20.264H112.084C111.971 19.879 111.821 19.6134 111.634 19.4677C111.447 19.3221 111.172 19.2492 110.81 19.2492H99.2531V23.1495H106.425C106.776 23.1495 107.045 23.0756 107.232 22.9275C107.419 22.7796 107.575 22.5154 107.7 22.1348H108.159V27.0469H107.7C107.586 26.6723 107.436 26.4094 107.249 26.2586C107.062 26.1079 106.788 26.0322 106.425 26.0322H99.2531V30.5693H111.337C111.688 30.5693 111.957 30.4964 112.144 30.3508C112.331 30.2051 112.481 29.9398 112.594 29.5547H113.07V34.8024H112.594C112.492 34.4323 112.345 34.1707 112.152 34.0177ZM83.3118 33.3438C83.9017 33.1961 84.1967 32.9592 84.1967 32.6321C84.1967 32.4003 84.0149 32.047 83.6515 31.5723L79.8493 26.4947H75.29V32.1576C75.29 32.4844 75.3691 32.7351 75.528 32.909C75.6865 33.0831 75.9698 33.2279 76.3777 33.3438V33.7879H69.8719V33.3438C70.2684 33.2487 70.5488 33.1115 70.7132 32.9316C70.8773 32.752 70.9598 32.4984 70.9598 32.1707V17.6481C70.9598 17.3205 70.8802 17.0721 70.7218 16.9029C70.5628 16.7339 70.2798 16.5911 69.8719 16.4747V16.0309H82.122C83.7421 16.0309 84.9772 16.1077 85.827 16.2607C86.6766 16.4141 87.4357 16.6915 88.1043 17.0932C89.4752 17.9283 90.1606 19.2917 90.1606 21.1835C90.1606 22.6211 89.7384 23.7439 88.8946 24.5526C88.0504 25.3611 86.6878 25.9453 84.8073 26.3044L88.4102 30.9869C89.0673 31.8518 89.5914 32.4396 89.9822 32.7509C90.3732 33.062 90.8177 33.2596 91.3164 33.3438V33.7879H83.3118V33.3438ZM85.5211 21.2628C85.5211 20.5125 85.2748 19.9893 84.7818 19.6931C84.2889 19.3974 83.4138 19.2492 82.156 19.2492H75.29V23.2763H82.156C83.1984 23.2763 83.9687 23.1708 84.4673 22.9592C85.1697 22.6739 85.5211 22.1086 85.5211 21.2628ZM59.5696 33.3438C59.966 33.2487 60.2465 33.1115 60.4109 32.9316C60.575 32.752 60.6572 32.4984 60.6572 32.1707V17.6481C60.6572 17.3205 60.5779 17.0721 60.4194 16.9029C60.2605 16.7339 59.9775 16.5911 59.5696 16.4747V16.0309H66.2995V16.4747C65.8917 16.5802 65.6084 16.7203 65.4499 16.8944C65.291 17.0687 65.2119 17.3194 65.2119 17.6469V32.156C65.2119 32.4836 65.291 32.7342 65.4499 32.9083C65.6084 33.0829 65.8917 33.2279 66.2995 33.3438V33.7879H59.5696V33.3438ZM56.2471 19.4757C56.0601 19.3247 55.7852 19.2492 55.4228 19.2492H44.0021V23.1495H51.174C51.5364 23.1495 51.8085 23.0756 51.9898 22.9275C52.1709 22.7796 52.3238 22.5154 52.4487 22.1348H52.9075V27.0469H52.4487C52.3353 26.6723 52.1852 26.4094 51.9984 26.2586C51.8113 26.1079 51.5364 26.0322 51.174 26.0322H44.0021V32.1576C44.0021 32.4844 44.0812 32.7349 44.2401 32.9088C44.3986 33.0831 44.6818 33.2279 45.0897 33.3438V33.7879H38.584V33.3438C38.9804 33.2487 39.2609 33.1115 39.4253 32.9316C39.5894 32.752 39.6718 32.4984 39.6718 32.1707V17.6481C39.6718 17.3205 39.5923 17.0721 39.4338 16.9029C39.2749 16.7339 38.9919 16.5911 38.584 16.4747V16.0309H55.4228C55.7852 16.0309 56.0601 15.9569 56.2471 15.8088C56.4339 15.6609 56.584 15.3967 56.6974 15.0161H57.1563V20.264H56.6974C56.584 19.8894 56.4339 19.6265 56.2471 19.4757Z" fill="#D02937"/>
<defs>
<clipPath id="clip0_386_6402">
<rect width="27.136" height="37.9355" fill="white" transform="translate(3.39209 5.92725)"/>
</clipPath>
</defs>
</svg>
