<svg width="188" height="60" viewBox="0 0 188 60" fill="none" xmlns="http://www.w3.org/2000/svg">
<path fill-rule="evenodd" clip-rule="evenodd" d="M27.1789 42.9435C15.6981 50.1539 15.8447 59.9568 15.9 59.897C15.9618 59.7888 -7.23579 42.7863 13.9315 23.2775C29.3555 9.06195 24.7795 4.78122 24.4303 2.25531C24.4303 2.25531 33.5088 16.2754 23.3314 27.0985C18.78 31.9387 16.3008 35.1689 15.9852 41.6454C15.9836 41.6658 15.9828 41.68 15.9828 41.68C15.9833 41.668 15.9847 41.6574 15.9852 41.6454C16.0195 41.2139 16.6355 36.3562 27.0549 32.7716C34.5263 30.2011 33.5937 18.4353 32.4282 16.4961C31.2629 14.557 43.6444 32.6027 27.1789 42.9435ZM11.4591 16.3936C-0.49182 26.258 2.94403 40.3205 2.94403 40.3205C-8.84701 13.3166 18.594 -0.13466 18.4908 0.00101613C20.4889 6.38758 18.5578 10.5345 11.4591 16.3936Z" fill="#D02937"/>
<path fill-rule="evenodd" clip-rule="evenodd" d="M183.954 22.7138C181.725 24.4741 178.92 25.3539 175.539 25.3539C172.158 25.3539 169.353 24.4741 167.124 22.7138C164.414 20.5914 163.059 17.6922 163.059 14.0164C163.059 10.302 164.414 7.40307 167.124 5.31926C169.365 3.59816 172.158 2.71776 175.501 2.67888C178.882 2.67888 181.7 3.55928 183.954 5.31926C186.651 7.44196 188 10.3991 188 14.1912C188 17.7506 186.651 20.5914 183.954 22.7138ZM180.899 8.94962C179.505 7.53902 177.712 6.82067 175.52 6.79457C173.328 6.79457 171.541 7.51292 170.16 8.94962C168.88 10.2958 168.241 11.9848 168.241 14.0164C168.241 16.0355 168.88 17.718 170.16 19.0639C171.541 20.5136 173.334 21.2382 175.539 21.2382C177.731 21.2382 179.517 20.5136 180.899 19.0639C182.178 17.731 182.818 16.0809 182.818 14.1135C182.818 11.978 182.178 10.2569 180.899 8.94962ZM159.173 25.1696C158.964 24.9817 158.657 24.8882 158.252 24.8882H139.446V23.7234L151.829 7.08577H141.533C141.128 7.08577 140.825 7.17495 140.622 7.35332C140.42 7.53168 140.249 7.85687 140.11 8.32834H139.598V1.90234H140.11C140.237 2.36837 140.405 2.69193 140.614 2.87301C140.822 3.05437 141.129 3.14491 141.534 3.14491H159.98V4.096L147.695 20.947H158.233C158.638 20.947 158.942 20.8549 159.145 20.6702C159.347 20.4854 159.518 20.1637 159.657 19.7047H160.17V26.1305H159.657C159.543 25.6772 159.382 25.3569 159.173 25.1696ZM135.631 25.1696C135.416 24.9817 135.112 24.8882 134.72 24.8882H115.173V24.3444C115.616 24.228 115.929 24.06 116.112 23.8397C116.296 23.6198 116.388 23.3093 116.388 22.9079V5.12513C116.388 4.72408 116.299 4.41983 116.122 4.21265C115.945 4.00573 115.628 3.8309 115.173 3.68843V3.14491H134.132C134.536 3.14491 134.843 3.05437 135.052 2.87301C135.261 2.69193 135.428 2.36837 135.555 1.90234H136.068V8.32834H135.555C135.428 7.85687 135.261 7.53168 135.052 7.35332C134.843 7.17495 134.536 7.08577 134.132 7.08577H121.224V11.8616H129.234C129.626 11.8616 129.927 11.7711 130.136 11.5897C130.345 11.4086 130.518 11.0851 130.658 10.6191H131.17V16.6339H130.658C130.531 16.1753 130.364 15.8533 130.155 15.6687C129.946 15.4841 129.639 15.3914 129.234 15.3914H121.224V20.947H134.72C135.112 20.947 135.413 20.8579 135.621 20.6795C135.83 20.5011 135.998 20.1762 136.125 19.7047H136.656V26.1305H136.125C136.011 25.6772 135.846 25.3569 135.631 25.1696ZM103.42 24.3444C104.079 24.1636 104.408 23.8735 104.408 23.4729C104.408 23.1891 104.205 22.7565 103.799 22.1752L99.5527 15.9577H94.4606V22.8919C94.4606 23.2921 94.549 23.5991 94.7265 23.812C94.9034 24.0252 95.2198 24.2024 95.6754 24.3444V24.8882H88.4093V24.3444C88.8521 24.228 89.1653 24.06 89.3489 23.8397C89.5322 23.6198 89.6243 23.3093 89.6243 22.9079V5.12513C89.6243 4.72408 89.5354 4.41983 89.3585 4.21265C89.181 4.00573 88.8649 3.8309 88.4093 3.68843V3.14491H102.091C103.9 3.14491 105.28 3.23898 106.229 3.42632C107.178 3.6142 108.026 3.9538 108.772 4.44566C110.304 5.46826 111.069 7.1377 111.069 9.45426C111.069 11.2145 110.598 12.5895 109.655 13.5797C108.712 14.5697 107.19 15.2851 105.09 15.7247L109.114 21.4585C109.848 22.5175 110.433 23.2372 110.87 23.6184C111.306 23.9993 111.803 24.2413 112.36 24.3444V24.8882H103.42V24.3444ZM105.887 9.55132C105.887 8.63259 105.612 7.992 105.062 7.62929C104.511 7.26713 103.534 7.08577 102.129 7.08577H94.4606V12.0169H102.129C103.293 12.0169 104.153 11.8877 104.71 11.6286C105.495 11.2792 105.887 10.587 105.887 9.55132ZM76.903 24.3444C77.3458 24.228 77.659 24.06 77.8426 23.8397C78.0259 23.6198 78.1177 23.3093 78.1177 22.9079V5.12513C78.1177 4.72408 78.0291 4.41983 77.8521 4.21265C77.6747 4.00573 77.3585 3.8309 76.903 3.68843V3.14491H84.4194V3.68843C83.9639 3.81758 83.6475 3.98915 83.4705 4.20231C83.293 4.41575 83.2047 4.72272 83.2047 5.12377V22.89C83.2047 23.291 83.293 23.598 83.4705 23.8112C83.6475 24.0249 83.9639 24.2024 84.4194 24.3444V24.8882H76.903V24.3444ZM73.1922 7.3631C72.9834 7.17822 72.6763 7.08577 72.2716 7.08577H59.5162V11.8616H67.5262C67.931 11.8616 68.2349 11.7711 68.4374 11.5897C68.6396 11.4086 68.8104 11.0851 68.9499 10.6191H69.4624V16.6339H68.9499C68.8232 16.1753 68.6556 15.8533 68.4469 15.6687C68.238 15.4841 67.931 15.3914 67.5262 15.3914H59.5162V22.8919C59.5162 23.2921 59.6045 23.5988 59.782 23.8117C59.959 24.0252 60.2753 24.2024 60.7309 24.3444V24.8882H53.4648V24.3444C53.9076 24.228 54.2208 24.06 54.4044 23.8397C54.5878 23.6198 54.6798 23.3093 54.6798 22.9079V5.12513C54.6798 4.72408 54.591 4.41983 54.414 4.21265C54.2365 4.00573 53.9204 3.8309 53.4648 3.68843V3.14491H72.2716C72.6763 3.14491 72.9834 3.05437 73.1922 2.87301C73.4009 2.69193 73.5685 2.36837 73.6952 1.90234H74.2077V8.32834H73.6952C73.5685 7.86965 73.4009 7.54772 73.1922 7.3631Z" fill="#232427"/>
<path fill-rule="evenodd" clip-rule="evenodd" d="M163.393 42.6118V40.1338H160.364V42.6118H159.441V36.986H160.364V39.3078H163.393V36.986H164.316V42.6118H163.393ZM156.76 38.2585H156.521L154.079 42.6118H152.776V36.986H153.677V41.3394H153.916L156.315 36.986H157.661V42.6118H156.76V38.2585ZM155.197 36.16C154.683 36.16 154.278 36.0186 153.981 35.7356C153.684 35.4531 153.529 35.0512 153.514 34.5303H154.263C154.278 35.1627 154.589 35.4789 155.197 35.4789C155.79 35.4789 156.105 35.1627 156.141 34.5303H156.89C156.876 35.0512 156.72 35.4531 156.424 35.7356C156.127 36.0186 155.718 36.16 155.197 36.16ZM150.215 42.0202H149.976C149.599 42.5115 149.031 42.757 148.271 42.757C147.67 42.757 147.193 42.5784 146.838 42.2211C146.484 41.8641 146.306 41.4326 146.306 40.9264C146.306 40.413 146.48 39.9739 146.827 39.6093C147.175 39.2447 147.699 39.0622 148.402 39.0622H150.182V38.839C150.182 38.4817 150.073 38.1971 149.856 37.985C149.639 37.7729 149.303 37.6669 148.846 37.6669C148.05 37.6669 147.627 37.9385 147.576 38.4817H146.654C146.69 37.9681 146.905 37.5665 147.3 37.2762C147.694 36.986 148.202 36.8408 148.825 36.8408C149.527 36.8408 150.079 37.0083 150.48 37.343C150.882 37.678 151.083 38.1579 151.083 38.7833V42.6118H150.215V42.0202ZM150.182 39.8214H148.543C147.667 39.8214 147.229 40.1784 147.229 40.8929C147.229 41.2129 147.339 41.4661 147.56 41.652C147.781 41.838 148.094 41.931 148.499 41.931C148.955 41.931 149.349 41.7766 149.683 41.4677C150.015 41.1591 150.182 40.7812 150.182 40.3347V39.8214ZM145.031 40.2064C145.179 40.4185 145.253 40.7031 145.253 41.0604C145.253 41.5441 145.053 41.9479 144.651 42.2714C144.249 42.5953 143.694 42.757 142.985 42.757C142.254 42.757 141.682 42.6045 141.27 42.2994C140.857 41.9944 140.607 41.5664 140.521 41.0158H141.411C141.591 41.6259 142.116 41.931 142.985 41.931C143.39 41.931 143.716 41.8549 143.962 41.7021C144.208 41.5498 144.331 41.3247 144.331 41.027C144.331 40.7366 144.238 40.5191 144.054 40.3739C143.869 40.2287 143.56 40.1561 143.126 40.1561H142.16V39.3301H143.082C143.451 39.3301 143.721 39.2558 143.891 39.1068C144.061 38.9581 144.146 38.7648 144.146 38.5263C144.146 38.2512 144.036 38.0391 143.815 37.8901C143.594 37.7414 143.303 37.6669 142.941 37.6669C142.55 37.6669 142.248 37.7357 142.035 37.8735C141.821 38.0111 141.682 38.2324 141.617 38.5375H140.738C140.788 38.0018 141.013 37.585 141.411 37.2873C141.808 36.9898 142.326 36.8408 142.963 36.8408C143.614 36.8408 144.126 36.9898 144.499 37.2873C144.872 37.585 145.058 37.957 145.058 38.4037C145.058 38.7014 145.002 38.9489 144.89 39.146C144.778 39.3431 144.638 39.4752 144.472 39.5421V39.7877C144.696 39.8548 144.882 39.9943 145.031 40.2064ZM141.552 47.5987H142.301C142.286 48.1196 142.131 48.5215 141.834 48.8043C141.537 49.087 141.129 49.2284 140.607 49.2284C140.093 49.2284 139.688 49.087 139.392 48.8043C139.095 48.5215 138.939 48.1196 138.925 47.5987H139.674C139.688 48.2314 140 48.5476 140.607 48.5476C141.201 48.5476 141.516 48.2314 141.552 47.5987ZM138.328 38.2585H138.089L135.646 42.6118H134.344V36.986H135.245V41.3394H135.484L137.883 36.986H139.229V42.6118H138.328V38.2585ZM136.021 50.7467C136.502 51.3046 136.743 52.0118 136.743 52.8675C136.743 53.7234 136.502 54.4303 136.021 54.9883C135.54 55.5465 134.883 55.8257 134.051 55.8257C133.219 55.8257 132.562 55.5465 132.08 54.9883C131.599 54.4303 131.359 53.7234 131.359 52.8675C131.359 52.0118 131.599 51.3046 132.08 50.7467C132.562 50.1885 133.219 49.9093 134.051 49.9093C134.883 49.9093 135.54 50.1885 136.021 50.7467ZM134.051 50.7353C133.479 50.7353 133.041 50.9419 132.737 51.3549C132.433 51.7679 132.281 52.2723 132.281 52.8675C132.281 53.4629 132.433 53.967 132.737 54.38C133.041 54.7931 133.479 54.9994 134.051 54.9994C134.623 54.9994 135.06 54.7931 135.364 54.38C135.668 53.967 135.82 53.4629 135.82 52.8675C135.82 52.2723 135.668 51.7679 135.364 51.3549C135.06 50.9419 134.623 50.7353 134.051 50.7353ZM132.249 42.6118H127.516V44.2081H126.615V41.7858H127.342C127.791 40.8035 128.015 39.7172 128.015 38.5263V36.986H132.14V41.7858H133.15V44.2081H132.249V42.6118ZM131.218 37.8121H128.873V38.5263C128.873 39.7991 128.674 40.8856 128.276 41.7858H131.218V37.8121ZM126.864 50.0545V54.8545H129.014V50.0545H129.915V55.6805H122.913V50.0545H123.814V54.8545H125.963V50.0545H126.864ZM121.567 38.2585H121.328L118.886 42.6118H117.583V36.986H118.484V41.3394H118.723L121.122 36.986H122.468V42.6118H121.567V38.2585ZM120.004 36.16C119.49 36.16 119.085 36.0186 118.788 35.7356C118.491 35.4531 118.256 35.2981 118.241 34.7772H118.99C119.005 35.4099 119.396 35.4789 120.004 35.4789C120.597 35.4789 121.072 35.492 121.108 34.8595H121.857C121.842 35.3805 121.527 35.4531 121.23 35.7356C120.934 36.0186 120.525 36.16 120.004 36.16ZM119.342 53.7604L120.862 50.0545H121.828L118.549 57.9131H117.616L118.745 55.1558L116.411 50.0545H117.399L119.07 53.7604H119.342ZM114.978 55.6805H110.245V57.2768H109.344V54.8545H110.071C110.52 53.8721 110.744 52.7856 110.744 51.595V50.0545H114.869V54.8545H115.879V57.2768H114.978V55.6805ZM113.947 50.8805H111.602V51.595C111.602 52.8675 111.403 53.954 111.005 54.8545H113.947V50.8805ZM114.902 38.2585H114.663L112.22 42.6118H110.918V36.986H111.819V41.3394H112.057L114.457 36.986H115.803V42.6118H114.902V38.2585ZM108.616 42.6118L107.4 40.1338H105.761V42.6118H104.839V36.986H105.761V39.3078H107.422L108.562 36.986H109.528L108.193 39.6985L109.604 42.6118H108.616ZM102.733 49.2284C102.219 49.2284 101.814 49.087 101.517 48.8043C101.22 48.5215 100.745 48.202 100.73 47.6811H101.48C101.494 48.3135 102.125 48.5476 102.733 48.5476C103.326 48.5476 104.041 48.3135 104.077 47.6811H104.826C104.812 48.202 104.256 48.5215 103.96 48.8043C103.663 49.087 103.254 49.2284 102.733 49.2284ZM101.159 41.931C101.926 41.931 102.385 41.5925 102.537 40.9152H103.46C103.352 41.4808 103.096 41.9294 102.695 42.2603C102.293 42.5914 101.781 42.757 101.159 42.757C100.334 42.757 99.6839 42.48 99.2103 41.9256C98.7361 41.3712 98.499 40.6623 98.499 39.7991C98.499 38.9282 98.7342 38.2177 99.2047 37.6669C99.6751 37.1163 100.326 36.8408 101.159 36.8408C101.788 36.8408 102.3 37.0026 102.695 37.3265C103.089 37.65 103.333 38.0799 103.427 38.6158H102.505C102.31 37.9834 101.861 37.6669 101.159 37.6669C100.572 37.6669 100.136 37.8662 99.8505 38.264C99.5647 38.6623 99.4218 39.1664 99.4218 39.7765C99.4218 40.3945 99.5666 40.9079 99.8561 41.3171C100.145 41.7265 100.58 41.931 101.159 41.931ZM98.1467 54.9883C97.6653 55.5465 97.0083 55.8257 96.1762 55.8257C95.3439 55.8257 94.6871 55.5465 94.206 54.9883C93.7247 54.4303 93.4841 53.7234 93.4841 52.8675C93.4841 52.0118 93.7247 51.3046 94.206 50.7467C94.6871 50.1885 95.3439 49.9093 96.1762 49.9093C97.0083 49.9093 97.6653 50.1885 98.1467 50.7467C98.6278 51.3046 98.8683 52.0118 98.8683 52.8675C98.8683 53.7234 98.6278 54.4303 98.1467 54.9883ZM97.49 51.3549C97.1858 50.9419 96.7478 50.7353 96.1762 50.7353C95.6047 50.7353 95.1667 50.9419 94.8628 51.3549C94.5589 51.7679 94.4069 52.2723 94.4069 52.8675C94.4069 53.4629 94.5589 53.967 94.8628 54.38C95.1667 54.7931 95.6047 54.9994 96.1762 54.9994C96.7478 54.9994 97.1858 54.7931 97.49 54.38C97.7938 53.967 97.9458 53.4629 97.9458 52.8675C97.9458 52.2723 97.7938 51.7679 97.49 51.3549ZM96.1225 40.2942H93.0847L93.1041 42.6118H92.1813V36.986H93.1041V39.3078H96.1326V36.986H97.0554V42.6118H96.1326L96.1225 40.2942ZM91.2587 52.7669L92.6701 55.6805H91.6821L90.4663 53.2025H88.8271V55.6805H87.9043V50.0545H88.8271V52.3764H90.4881L91.6278 50.0545H92.594L91.2587 52.7669ZM89.4783 40.3905H87.8173C87.6726 40.3905 87.5605 40.3869 87.481 40.3793L86.6558 42.6118H85.6899L86.6124 40.1672C86.048 39.8921 85.7657 39.401 85.7657 38.6938C85.7657 38.1506 85.9304 37.7302 86.2596 37.4325C86.589 37.1348 87.0648 36.986 87.6872 36.986H90.412V42.6118H89.4783V40.3905ZM89.4783 37.7898H87.7848C87.3868 37.7898 87.1044 37.8678 86.9381 38.0241C86.7715 38.1805 86.6885 38.4075 86.6885 38.705C86.6885 38.9954 86.7715 39.2148 86.9381 39.3635C87.1044 39.5125 87.3868 39.5867 87.7848 39.5867H89.4783V37.7898ZM86.4932 51.6842H85.5706C85.3751 51.0518 84.9264 50.7353 84.2245 50.7353C83.6382 50.7353 83.2021 50.9346 82.9163 51.3326C82.6305 51.7307 82.4876 52.2351 82.4876 52.8452C82.4876 53.4629 82.6324 53.9766 82.9219 54.3855C83.2112 54.795 83.6454 54.9994 84.2245 54.9994C84.9916 54.9994 85.4512 54.6609 85.6031 53.9836H86.5259C86.4174 54.5494 86.1622 54.9978 85.7606 55.329C85.3588 55.6601 84.8469 55.8257 84.2245 55.8257C83.3996 55.8257 82.7497 55.5484 82.2758 54.994C81.8019 54.4396 81.5648 53.7308 81.5648 52.8675C81.5648 51.9969 81.8 51.2861 82.2705 50.7353C82.741 50.1847 83.3921 49.9093 84.2245 49.9093C84.854 49.9093 85.366 50.0713 85.7606 50.3949C86.155 50.7187 86.3993 51.1486 86.4932 51.6842ZM82.5417 42.6118H80.0015V36.986H80.9243V38.8613H82.5417C83.2002 38.8613 83.7088 39.025 84.0669 39.3524C84.4251 39.68 84.6042 40.1376 84.6042 40.7254C84.6042 41.3209 84.4251 41.7842 84.0669 42.1151C83.7088 42.4465 83.2002 42.6118 82.5417 42.6118ZM83.3884 39.9328C83.1931 39.7542 82.8674 39.665 82.4115 39.665H80.9243V41.7858H82.4115C82.8674 41.7858 83.1931 41.6966 83.3884 41.518C83.5837 41.3394 83.6816 41.0754 83.6816 40.7254C83.6816 40.3758 83.5837 40.1115 83.3884 39.9328ZM79.5675 51.6842C79.3722 51.0518 78.9233 50.7353 78.2216 50.7353C77.6354 50.7353 77.1992 50.9346 76.9134 51.3326C76.6274 51.7307 76.4845 52.2351 76.4845 52.8452C76.4845 53.4629 76.6292 53.9766 76.9188 54.3855C77.2083 54.795 77.6423 54.9994 78.2216 54.9994C78.9885 54.9994 79.448 54.6609 79.6002 53.9836H80.5228C80.4142 54.5494 80.1593 54.9978 79.7575 55.329C79.3559 55.6601 78.8437 55.8257 78.2216 55.8257C77.3964 55.8257 76.7469 55.5484 76.2729 54.994C75.7987 54.4396 75.5619 53.7308 75.5619 52.8675C75.5619 51.9969 75.7969 51.2861 76.2673 50.7353C76.7378 50.1847 77.3892 49.9093 78.2216 49.9093C78.8512 49.9093 79.3629 50.0713 79.7575 50.3949C80.1518 50.7187 80.3961 51.1486 80.4903 51.6842H79.5675ZM77.2987 37.8121H74.8996V39.1849C74.8996 40.4576 74.7493 41.347 74.4491 41.853C74.1487 42.359 73.6548 42.6118 72.9672 42.6118H72.7828V41.7189H72.9672C73.3509 41.7189 73.6258 41.5349 73.7924 41.1664C73.9587 40.798 74.042 40.1302 74.042 39.1626V36.986H78.2322V42.6118H77.2987V37.8121ZM74.9214 50.0545L71.6431 57.9131H70.7094L71.8384 55.1558L69.5045 50.0545H70.4922L72.1641 53.7604H72.4355L73.9552 50.0545H74.9214ZM70.8398 42.0202H70.6008C70.2245 42.5115 69.6564 42.757 68.8964 42.757C68.2959 42.757 67.8182 42.5784 67.4635 42.2211C67.1091 41.8641 66.9318 41.4326 66.9318 40.9264C66.9318 40.413 67.1053 39.9739 67.4529 39.6093C67.8001 39.2447 68.3249 39.0622 69.0268 39.0622H70.807V38.839C70.807 38.4817 70.6985 38.1971 70.4816 37.985C70.2645 37.7729 69.9278 37.6669 69.472 37.6669C68.6758 37.6669 68.2525 37.9385 68.2019 38.4817H67.2791C67.3153 37.9681 67.5306 37.5665 67.9249 37.2762C68.3193 36.986 68.8278 36.8408 69.4502 36.8408C70.1522 36.8408 70.704 37.0083 71.1056 37.343C71.5074 37.678 71.708 38.1579 71.708 38.7833V42.6118H70.8398V42.0202ZM70.807 39.8214H69.1679C68.2921 39.8214 67.8544 40.1784 67.8544 40.8929C67.8544 41.2129 67.9646 41.4661 68.1854 41.652C68.4063 41.838 68.7192 41.931 69.1245 41.931C69.5806 41.931 69.9749 41.7766 70.3078 41.4677C70.6404 41.1591 70.807 40.7812 70.807 40.3347V39.8214ZM64.2506 42.6118H63.3278V37.8121H61.4282V36.986H66.1394V37.8121H64.2506V42.6118ZM59.1594 35.8585H58.9205L55.3164 42.6118H53.7858V34.6418H54.7411V41.3951H54.9801L58.5841 34.6418H60.1147V42.6118H59.1594V35.8585ZM56.0112 49.9093C56.6408 49.9093 57.1528 50.0713 57.5474 50.3949C57.9417 50.7187 58.186 51.1486 58.28 51.6842H57.3574C57.1618 51.0518 56.7132 50.7353 56.0112 50.7353C55.425 50.7353 54.9889 50.9346 54.7031 51.3326C54.4173 51.7307 54.2744 52.2351 54.2744 52.8452C54.2744 53.4629 54.4191 53.9766 54.7087 54.3855C54.9979 54.795 55.4322 54.9994 56.0112 54.9994C56.7784 54.9994 57.2379 54.6609 57.3899 53.9836H58.3127C58.2041 54.5494 57.9489 54.9978 57.5474 55.329C57.1456 55.6601 56.6336 55.8257 56.0112 55.8257C55.1863 55.8257 54.5365 55.5484 54.0626 54.994C53.5887 54.4396 53.3516 53.7308 53.3516 52.8675C53.3516 51.9969 53.5868 51.2861 54.0573 50.7353C54.5277 50.1847 55.1789 49.9093 56.0112 49.9093ZM68.0282 48.3355C68.484 48.7523 68.712 49.3364 68.712 50.0879C68.712 50.847 68.484 51.437 68.0282 51.8571C67.5723 52.2777 66.9244 52.4879 66.0851 52.4879H63.7836V55.6805H62.8068V47.7104H66.0851C66.9244 47.7104 67.5723 47.9187 68.0282 48.3355ZM63.7836 48.6033V51.595H65.9223C67.1234 51.595 67.7243 51.0964 67.7243 50.099C67.7243 49.102 67.1234 48.6033 65.9223 48.6033H63.7836ZM101.213 54.4081H101.452L103.851 50.0545H105.197V55.6805H104.296V51.3269H104.057L101.615 55.6805H100.312V50.0545H101.213V54.4081ZM139.088 54.4081H139.327L141.725 50.0545H143.072V55.6805H142.171V51.3269H141.932L139.489 55.6805H138.187V50.0545H139.088V54.4081Z" fill="#232427"/>
</svg>
