<svg width="97" height="32" viewBox="0 0 97 32" fill="none" xmlns="http://www.w3.org/2000/svg">
<g clip-path="url(#clip0_386_6104)">
<path fill-rule="evenodd" clip-rule="evenodd" d="M14.8575 21.2699C8.60366 25.7706 9.50429 28.2807 9.59966 28.4342C9.30035 28.1595 -0.522959 21.0676 8.7318 12.9496C15.5884 6.93548 13.5541 5.12432 13.399 4.05566C13.399 4.05566 18.5622 9.93533 12.2321 15.8186C9.19275 18.6438 8.62958 19.7322 8.7318 21.8438C8.7318 21.8438 10.5825 19.1407 14.5657 16.9664C17.6533 15.281 17.719 11.55 17.3045 10.3346C17.956 11.7205 20.2253 17.4063 14.8575 21.2699ZM9.607 28.4424C9.60602 28.4433 9.60333 28.44 9.59966 28.4342C9.6048 28.4388 9.60749 28.4416 9.607 28.4424ZM17.1908 10.0806C17.2314 10.1446 17.2696 10.2317 17.3045 10.3346C17.1686 10.0452 17.1013 9.93893 17.1908 10.0806ZM7.29586 10.8389C2.49511 14.97 4.05227 20.8567 4.05227 20.8567C-0.855345 10.1148 10.195 4.47232 10.152 4.52619C10.8228 6.3857 9.25069 9.15669 7.29586 10.8389Z" fill="#D02937"/>
</g>
<path fill-rule="evenodd" clip-rule="evenodd" d="M93.8379 20.9061C92.6329 21.8449 91.1164 22.3141 89.2886 22.3141C87.4607 22.3141 85.9444 21.8449 84.7395 20.9061C83.2744 19.7741 82.542 18.2279 82.542 16.2675C82.542 14.2865 83.2744 12.7404 84.7395 11.629C85.9513 10.7111 87.4607 10.2415 89.2682 10.2208C91.096 10.2208 92.6192 10.6903 93.8379 11.629C95.296 12.7611 96.0252 14.3382 96.0252 16.3607C96.0252 18.2591 95.296 19.7741 93.8379 20.9061ZM92.1862 13.5652C91.4326 12.8129 90.4633 12.4297 89.2784 12.4158C88.0934 12.4158 87.1276 12.7989 86.381 13.5652C85.6891 14.2831 85.3432 15.1839 85.3432 16.2675C85.3432 17.3443 85.6891 18.2417 86.381 18.9595C87.1276 19.7327 88.0968 20.1191 89.2886 20.1191C90.4735 20.1191 91.4394 19.7327 92.1862 18.9595C92.8779 18.2486 93.2238 17.3685 93.2238 16.3192C93.2238 15.1803 92.8779 14.2624 92.1862 13.5652ZM80.4412 22.2158C80.3282 22.1156 80.1622 22.0657 79.9432 22.0657H69.7771V21.4445L76.4714 12.5711H70.905C70.6862 12.5711 70.5223 12.6187 70.4129 12.7138C70.3036 12.809 70.2112 12.9824 70.1362 13.2338H69.8591V9.80664H70.1362C70.2045 10.0552 70.2952 10.2278 70.4082 10.3243C70.521 10.4211 70.6868 10.4693 70.9058 10.4693H80.8777V10.9766L74.2365 19.9638H79.9331C80.1521 19.9638 80.3164 19.9146 80.426 19.8162C80.5354 19.7176 80.6278 19.546 80.7032 19.3013H80.9802V22.7283H80.7032C80.6415 22.4866 80.554 22.3157 80.4412 22.2158ZM67.7146 22.2158C67.5982 22.1156 67.4341 22.0657 67.222 22.0657H56.655V21.7757C56.8944 21.7137 57.0637 21.624 57.1629 21.5066C57.262 21.3893 57.3118 21.2237 57.3118 21.0096V11.5255C57.3118 11.3116 57.2638 11.1493 57.1681 11.0388C57.0722 10.9284 56.9013 10.8352 56.655 10.7592V10.4693H66.904C67.1228 10.4693 67.2888 10.4211 67.4015 10.3243C67.5145 10.2278 67.6051 10.0552 67.6736 9.80664H67.9506V13.2338H67.6736C67.6051 12.9824 67.5145 12.809 67.4015 12.7138C67.2888 12.6187 67.1228 12.5711 66.904 12.5711H59.9263V15.1183H64.2565C64.4686 15.1183 64.6311 15.07 64.7439 14.9732C64.8568 14.8767 64.9508 14.7041 65.0261 14.4556H65.3032V17.6635H65.0261C64.9577 17.4189 64.867 17.2472 64.7542 17.1487C64.6413 17.0502 64.4755 17.0008 64.2565 17.0008H59.9263V19.9638H67.222C67.4341 19.9638 67.5966 19.9162 67.7094 19.8211C67.8223 19.726 67.9129 19.5527 67.9814 19.3013H68.2687V22.7283H67.9814C67.9198 22.4866 67.8308 22.3157 67.7146 22.2158ZM50.3014 21.7757C50.6576 21.6793 50.8356 21.5246 50.8356 21.311C50.8356 21.1596 50.7259 20.9289 50.5065 20.6188L48.2108 17.3029H45.458V21.0011C45.458 21.2145 45.5058 21.3782 45.6018 21.4918C45.6974 21.6055 45.8685 21.7 46.1147 21.7757V22.0657H42.1867V21.7757C42.4261 21.7137 42.5954 21.624 42.6947 21.5066C42.7938 21.3893 42.8436 21.2237 42.8436 21.0096V11.5255C42.8436 11.3116 42.7955 11.1493 42.6998 11.0388C42.6039 10.9284 42.433 10.8352 42.1867 10.7592V10.4693H49.583C50.5612 10.4693 51.3069 10.5195 51.82 10.6194C52.333 10.7196 52.7913 10.9008 53.1949 11.1631C54.0227 11.7085 54.4365 12.5988 54.4365 13.8343C54.4365 14.7731 54.1816 15.5065 53.6721 16.0346C53.1624 16.5626 52.3397 16.9441 51.2043 17.1786L53.3796 20.2366C53.7764 20.8014 54.0929 21.1852 54.3288 21.3885C54.5648 21.5917 54.8333 21.7208 55.1343 21.7757V22.0657H50.3014V21.7757ZM51.6353 13.8861C51.6353 13.3961 51.4866 13.0545 51.1889 12.861C50.8913 12.6679 50.3629 12.5711 49.6035 12.5711H45.458V15.2011H49.6035C50.2329 15.2011 50.698 15.1322 50.9991 14.994C51.4231 14.8076 51.6353 14.4384 51.6353 13.8861ZM35.9665 21.7757C36.2058 21.7137 36.3751 21.624 36.4744 21.5066C36.5735 21.3893 36.6231 21.2237 36.6231 21.0096V11.5255C36.6231 11.3116 36.5752 11.1493 36.4796 11.0388C36.3836 10.9284 36.2127 10.8352 35.9665 10.7592V10.4693H40.0298V10.7592C39.7835 10.8281 39.6125 10.9196 39.5168 11.0333C39.4209 11.1471 39.3731 11.3108 39.3731 11.5247V21.0001C39.3731 21.2139 39.4209 21.3777 39.5168 21.4914C39.6125 21.6053 39.7835 21.7 40.0298 21.7757V22.0657H35.9665V21.7757ZM33.9605 12.719C33.8475 12.6204 33.6815 12.5711 33.4627 12.5711H26.5672V15.1183H30.8974C31.1162 15.1183 31.2805 15.07 31.39 14.9732C31.4993 14.8767 31.5917 14.7041 31.667 14.4556H31.9441V17.6635H31.667C31.5986 17.4189 31.5079 17.2472 31.3952 17.1487C31.2822 17.0502 31.1162 17.0008 30.8974 17.0008H26.5672V21.0011C26.5672 21.2145 26.615 21.3781 26.7109 21.4916C26.8066 21.6055 26.9776 21.7 27.2239 21.7757V22.0657H23.2959V21.7757C23.5353 21.7137 23.7046 21.624 23.8038 21.5066C23.903 21.3893 23.9527 21.2237 23.9527 21.0096V11.5255C23.9527 11.3116 23.9047 11.1493 23.809 11.0388C23.7131 10.9284 23.5422 10.8352 23.2959 10.7592V10.4693H33.4627C33.6815 10.4693 33.8475 10.4211 33.9605 10.3243C34.0732 10.2278 34.1639 10.0552 34.2323 9.80664H34.5094V13.2338H34.2323C34.1639 12.9892 34.0732 12.8175 33.9605 12.719Z" fill="#25272B"/>
<defs>
<clipPath id="clip0_386_6104">
<rect width="16.384" height="24.7742" fill="white" transform="translate(2.04785 3.87109)"/>
</clipPath>
</defs>
</svg>
