<svg width="55" height="54" viewBox="0 0 55 54" fill="none" xmlns="http://www.w3.org/2000/svg">
<rect x="0.755859" width="54" height="54" rx="27" fill="#D02937"/>
<path d="M14.3588 26.0689H9.71538V27.7493H14.3588V26.0689ZM19.8388 32.1392C22.1257 32.1392 23.7614 30.8814 23.7564 29.1413C23.7614 27.8736 22.956 26.9688 21.4595 26.7798V26.7003C22.598 26.4964 23.3835 25.6911 23.3786 24.5476C23.3835 22.9418 21.9766 21.679 19.8686 21.679C17.7805 21.679 16.2095 22.902 16.1797 24.6619H18.2429C18.2678 23.8864 18.9787 23.3842 19.8587 23.3842C20.7287 23.3842 21.3104 23.9112 21.3054 24.6768C21.3104 25.4773 20.6293 26.0192 19.6499 26.0192H18.7003V27.6001H19.6499C20.8033 27.6001 21.5241 28.1768 21.5192 28.9972C21.5241 29.8075 20.8281 30.3643 19.8438 30.3643C18.8942 30.3643 18.1832 29.8672 18.1435 29.1214H15.9759C16.0107 30.9013 17.6016 32.1392 19.8388 32.1392ZM29.296 32.2237C31.8564 32.2237 33.4025 30.2749 33.4075 26.919C33.4125 23.5881 31.8464 21.679 29.296 21.679C26.7406 21.679 25.1895 23.5831 25.1845 26.919C25.1745 30.2649 26.7306 32.2188 29.296 32.2237ZM29.296 30.4389C28.1277 30.4389 27.372 29.2656 27.377 26.919C27.3819 24.6072 28.1326 23.4439 29.296 23.4439C30.4544 23.4439 31.21 24.6072 31.21 26.919C31.215 29.2656 30.4593 30.4389 29.296 30.4389ZM40.5156 30.0909C40.5206 31.3139 41.3011 32.353 42.7578 32.353C44.1996 32.353 45.005 31.3139 45 30.0909V29.554C45.005 28.321 44.2195 27.2919 42.7578 27.2919C41.321 27.2919 40.5206 28.331 40.5156 29.554V30.0909ZM35.2905 24.2642C35.2955 25.4872 36.076 26.5163 37.5277 26.5163C38.9744 26.5163 39.7798 25.4972 39.7749 24.2642V23.7273C39.7798 22.4943 38.9943 21.4652 37.5277 21.4652C36.1058 21.4652 35.2955 22.4943 35.2905 23.7273V24.2642ZM35.7777 32H37.0753L44.0753 21.8182H42.7777L35.7777 32ZM41.9624 29.554C41.9673 29.0668 42.1612 28.5646 42.7578 28.5646C43.3842 28.5646 43.5483 29.0668 43.5433 29.554V30.0909C43.5483 30.5781 43.3643 31.0703 42.7578 31.0703C42.1513 31.0703 41.9673 30.5632 41.9624 30.0909V29.554ZM36.7472 23.7273C36.7521 23.255 36.9361 22.7379 37.5277 22.7379C38.1541 22.7379 38.3232 23.2401 38.3182 23.7273V24.2642C38.3232 24.7514 38.1342 25.2436 37.5277 25.2436C36.9411 25.2436 36.7521 24.7514 36.7472 24.2642V23.7273Z" fill="white"/>
</svg>
