<svg width="11" height="13" viewBox="0 0 11 13" fill="none" xmlns="http://www.w3.org/2000/svg">
<path d="M5.74404 0.965714L10.0588 2.26014C10.2162 2.30737 10.3241 2.45231 10.324 2.6167V7.36294C10.324 7.9944 10.0683 8.63689 9.57061 9.27205C9.19054 9.75706 8.666 10.2426 8.01269 10.7155C6.91556 11.5097 5.83567 11.9967 5.78913 12.0175M5.74404 0.965714L5.63704 12.05C5.68886 12.05 5.74073 12.0392 5.78913 12.0175M5.74404 0.965714L5.72966 1.0136L1.2153 2.26014L5.53009 0.96571C5.53009 0.96571 5.53009 0.965709 5.53009 0.965708C5.59988 0.944765 5.67431 0.944761 5.74404 0.965714ZM5.78913 12.0175L5.76871 11.9719L5.78917 12.0175C5.78915 12.0175 5.78914 12.0175 5.78913 12.0175ZM3.26137 10.7155C4.35839 11.5096 5.4382 11.9966 5.48493 12.0175L1.2153 2.26014C1.05783 2.30737 0.95 2.45231 0.95 2.6167V7.36294C0.95 7.99437 1.2057 8.63687 1.70342 9.27205C2.08349 9.75706 2.60803 10.2426 3.26137 10.7155ZM9.57952 7.36294C9.57952 7.89262 9.31347 8.41082 8.92776 8.88285C8.54256 9.35424 8.0424 9.7742 7.58437 10.1064C6.78157 10.6887 5.9672 11.1059 5.63706 11.2661C5.30692 11.1059 4.49252 10.6887 3.68972 10.1064C3.23168 9.7742 2.73151 9.35424 2.34631 8.88285C1.96059 8.41082 1.69453 7.89262 1.69453 7.36294V2.89367L5.63704 1.71091L9.57952 2.89367V7.36294Z" fill="#707D8A" stroke="#707D8A" stroke-width="0.1"/>
</svg>
