<svg width="18" height="18" viewBox="0 0 18 18" fill="none" xmlns="http://www.w3.org/2000/svg">
<path d="M9 18C13.9706 18 18 13.9706 18 9C18 4.02944 13.9706 0 9 0C4.02944 0 0 4.02944 0 9C0 13.9706 4.02944 18 9 18Z" fill="#BABDC7"/>
<path d="M4.11869 8.80467L12.7962 5.45892C13.1989 5.31342 13.5507 5.55717 13.4202 6.16617L13.4209 6.16542L11.9434 13.1262C11.8339 13.6197 11.5407 13.7397 11.1304 13.5072L8.88044 11.8489L7.79519 12.8944C7.67519 13.0144 7.57394 13.1157 7.34144 13.1157L7.50119 10.8259L11.6712 7.05867C11.8527 6.89892 11.6307 6.80892 11.3914 6.96792L6.23819 10.2124L4.01669 9.51942C3.53444 9.36642 3.52394 9.03717 4.11869 8.80467Z" fill="#F8FAFE"/>
</svg>
