<svg width="18" height="18" viewBox="0 0 18 18" fill="none" xmlns="http://www.w3.org/2000/svg">
<path d="M9 18C13.9706 18 18 13.9706 18 9C18 4.02944 13.9706 0 9 0C4.02944 0 0 4.02944 0 9C0 13.9706 4.02944 18 9 18Z" fill="#D02937"/>
<path d="M4.11771 8.80467L12.7952 5.45892C13.198 5.31342 13.5497 5.55717 13.4192 6.16617L13.42 6.16542L11.9425 13.1262C11.833 13.6197 11.5397 13.7397 11.1295 13.5072L8.87946 11.8489L7.79421 12.8944C7.67421 13.0144 7.57296 13.1157 7.34046 13.1157L7.50021 10.8259L11.6702 7.05867C11.8517 6.89892 11.6297 6.80892 11.3905 6.96792L6.23721 10.2124L4.01571 9.51942C3.53346 9.36642 3.52296 9.03717 4.11771 8.80467V8.80467Z" fill="#F8FAFE"/>
</svg>
