<svg width="18" height="18" viewBox="0 0 18 18" fill="none" xmlns="http://www.w3.org/2000/svg">
<g clip-path="url(#clip0_310_5996)">
<ellipse cx="9" cy="7.875" rx="6.75" ry="7.125" fill="white"/>
<path fill-rule="evenodd" clip-rule="evenodd" d="M6.19732 0.0804C3.76659 0.427835 1.6155 2.31918 0.937905 4.70505C0.774333 5.28081 0.75336 5.60849 0.750223 7.63223C0.746549 10.0615 0.783296 10.35 1.23431 11.4329C1.35378 11.7199 1.60663 12.1836 1.7961 12.4633C2.26737 13.1589 3.11983 13.9593 3.78129 14.3271L4.3317 14.6332L4.33429 16.1222C4.33645 17.3253 4.36378 17.6486 4.47654 17.8056C4.55326 17.9126 4.66467 18 4.72409 18C4.78351 18 5.45627 17.39 6.21919 16.6445L7.60628 15.2891L9.53437 15.2876C11.6067 15.2859 12.2336 15.2066 13.2071 14.823C14.0362 14.4963 14.6943 14.0773 15.3109 13.4837C15.9689 12.8503 16.4601 12.1557 16.761 11.4329C17.2265 10.3153 17.2582 10.0677 17.2487 7.62882C17.2407 5.61609 17.2181 5.27058 17.0565 4.70173C16.9557 4.34695 16.7068 3.74075 16.5034 3.35466C16.2245 2.82542 15.9448 2.46985 15.3665 1.90939C14.9446 1.50057 14.371 1.03543 14.0917 0.875661C13.4375 0.501554 12.5032 0.186301 11.7222 0.0762028C10.9863 -0.0275991 6.93146 -0.0245387 6.19732 0.0804ZM10.8313 2.65542C11.1212 2.72905 11.5919 2.91086 11.8774 3.05935C12.5056 3.38597 13.2837 4.16016 13.6042 4.77728C13.9654 5.47276 14.1329 6.30029 14.0623 7.04212C13.999 7.70857 13.8468 7.95955 13.5987 7.80686C13.4935 7.74215 13.4611 7.50517 13.4494 6.71673C13.4353 5.77254 13.4161 5.67311 13.1444 5.13504C12.7904 4.4337 12.0653 3.73778 11.3604 3.42296C11.0696 3.2931 10.5267 3.15458 10.0837 3.0973C9.45147 3.01554 9.30716 2.96849 9.2809 2.83565C9.26334 2.74654 9.30331 2.64003 9.36981 2.59893C9.5592 2.48184 10.2538 2.50868 10.8313 2.65542ZM6.31885 3.69143C6.39835 3.74539 6.81172 4.15299 7.23755 4.59714C7.88565 5.27329 8.01176 5.45169 8.01176 5.6927C8.01176 6.06523 7.81664 6.32906 7.38033 6.5462C7.03077 6.72022 6.75615 7.09354 6.75785 7.39244C6.75974 7.73944 7.23549 8.51573 7.78876 9.07496C8.34285 9.63498 9.1426 10.1296 9.49386 10.1296C9.80595 10.1296 10.2302 9.84862 10.4227 9.51439C10.5325 9.32384 10.6978 9.12848 10.79 9.0803C10.8823 9.0322 11.1067 8.99276 11.2889 8.99276C11.5842 8.99276 11.7069 9.07549 12.4233 9.75794C12.8651 10.1788 13.2869 10.6361 13.3607 10.7742C13.597 11.2161 13.4587 11.5202 12.6889 12.251C12.1591 12.7542 11.9101 12.9283 11.6535 12.9753C10.9043 13.1124 9.605 12.6459 8.30063 11.7715C7.92213 11.5178 7.18592 10.897 6.66473 10.3919C4.832 8.61612 3.69569 6.48315 3.93079 5.26018C3.97686 5.02065 4.15952 4.76871 4.63554 4.28801C4.98894 3.93113 5.35875 3.60617 5.45734 3.56585C5.66232 3.48208 6.10581 3.5467 6.31885 3.69143ZM10.9121 3.92361C11.18 4.02146 11.5834 4.25958 11.8084 4.45293C12.3531 4.9207 12.7672 5.74281 12.8275 6.47642C12.8646 6.92783 12.8448 7.05305 12.7204 7.15379C12.6108 7.24256 12.527 7.25226 12.4227 7.18808C12.318 7.12363 12.2735 6.95083 12.2631 6.56754C12.2447 5.89121 11.9802 5.34561 11.45 4.89018C10.9821 4.48844 10.3969 4.27052 9.78551 4.27052C9.33683 4.27052 9.19065 4.15237 9.29901 3.877C9.37707 3.67849 10.3147 3.7056 10.9121 3.92361ZM10.8668 5.25738C11.0727 5.3903 11.2949 5.64102 11.4068 5.86646C11.6295 6.31542 11.6591 6.85201 11.4651 6.92468C11.2915 6.98965 11.0592 6.75617 11.0588 6.51612C11.058 6.04547 10.4582 5.4948 9.9464 5.4948C9.70933 5.4948 9.52935 5.27163 9.6033 5.06928C9.67375 4.87645 10.4576 4.99311 10.8668 5.25738Z" fill="#BABDC7"/>
<path fill-rule="evenodd" clip-rule="evenodd" d="M6.19732 0.0804C3.76659 0.427835 1.6155 2.31918 0.937905 4.70505C0.774333 5.28081 0.75336 5.60849 0.750223 7.63223C0.746549 10.0615 0.783296 10.35 1.23431 11.4329C1.35378 11.7199 1.60663 12.1836 1.7961 12.4633C2.26737 13.1589 3.11983 13.9593 3.78129 14.3271L4.3317 14.6332L4.33429 16.1222C4.33645 17.3253 4.36378 17.6486 4.47654 17.8056C4.55326 17.9126 4.66467 18 4.72409 18C4.78351 18 5.45627 17.39 6.21919 16.6445L7.60628 15.2891L9.53437 15.2876C11.6067 15.2859 12.2336 15.2066 13.2071 14.823C14.0362 14.4963 14.6943 14.0773 15.3109 13.4837C15.9689 12.8503 16.4601 12.1557 16.761 11.4329C17.2265 10.3153 17.2582 10.0677 17.2487 7.62882C17.2407 5.61609 17.2181 5.27058 17.0565 4.70173C16.9557 4.34695 16.7068 3.74075 16.5034 3.35466C16.2245 2.82542 15.9448 2.46985 15.3665 1.90939C14.9446 1.50057 14.371 1.03543 14.0917 0.875661C13.4375 0.501554 12.5032 0.186301 11.7222 0.0762028C10.9863 -0.0275991 6.93146 -0.0245387 6.19732 0.0804ZM10.8313 2.65542C11.1212 2.72905 11.5919 2.91086 11.8774 3.05935C12.5056 3.38597 13.2837 4.16016 13.6042 4.77728C13.9654 5.47276 14.1329 6.30029 14.0623 7.04212C13.999 7.70857 13.8468 7.95955 13.5987 7.80686C13.4935 7.74215 13.4611 7.50517 13.4494 6.71673C13.4353 5.77254 13.4161 5.67311 13.1444 5.13504C12.7904 4.4337 12.0653 3.73778 11.3604 3.42296C11.0696 3.2931 10.5267 3.15458 10.0837 3.0973C9.45147 3.01554 9.30716 2.96849 9.2809 2.83565C9.26334 2.74654 9.30331 2.64003 9.36981 2.59893C9.5592 2.48184 10.2538 2.50868 10.8313 2.65542ZM6.31885 3.69143C6.39835 3.74539 6.81172 4.15299 7.23755 4.59714C7.88565 5.27329 8.01176 5.45169 8.01176 5.6927C8.01176 6.06523 7.81664 6.32906 7.38033 6.5462C7.03077 6.72022 6.75615 7.09354 6.75785 7.39244C6.75974 7.73944 7.23549 8.51573 7.78876 9.07496C8.34285 9.63498 9.1426 10.1296 9.49386 10.1296C9.80595 10.1296 10.2302 9.84862 10.4227 9.51439C10.5325 9.32384 10.6978 9.12848 10.79 9.0803C10.8823 9.0322 11.1067 8.99276 11.2889 8.99276C11.5842 8.99276 11.7069 9.07549 12.4233 9.75794C12.8651 10.1788 13.2869 10.6361 13.3607 10.7742C13.597 11.2161 13.4587 11.5202 12.6889 12.251C12.1591 12.7542 11.9101 12.9283 11.6535 12.9753C10.9043 13.1124 9.605 12.6459 8.30063 11.7715C7.92213 11.5178 7.18592 10.897 6.66473 10.3919C4.832 8.61612 3.69569 6.48315 3.93079 5.26018C3.97686 5.02065 4.15952 4.76871 4.63554 4.28801C4.98894 3.93113 5.35875 3.60617 5.45734 3.56585C5.66232 3.48208 6.10581 3.5467 6.31885 3.69143ZM10.9121 3.92361C11.18 4.02146 11.5834 4.25958 11.8084 4.45293C12.3531 4.9207 12.7672 5.74281 12.8275 6.47642C12.8646 6.92783 12.8448 7.05305 12.7204 7.15379C12.6108 7.24256 12.527 7.25226 12.4227 7.18808C12.318 7.12363 12.2735 6.95083 12.2631 6.56754C12.2447 5.89121 11.9802 5.34561 11.45 4.89018C10.9821 4.48844 10.3969 4.27052 9.78551 4.27052C9.33683 4.27052 9.19065 4.15237 9.29901 3.877C9.37707 3.67849 10.3147 3.7056 10.9121 3.92361ZM10.8668 5.25738C11.0727 5.3903 11.2949 5.64102 11.4068 5.86646C11.6295 6.31542 11.6591 6.85201 11.4651 6.92468C11.2915 6.98965 11.0592 6.75617 11.0588 6.51612C11.058 6.04547 10.4582 5.4948 9.9464 5.4948C9.70933 5.4948 9.52935 5.27163 9.6033 5.06928C9.67375 4.87645 10.4576 4.99311 10.8668 5.25738Z" fill="#BABDC7"/>
</g>
<defs>
<clipPath id="clip0_310_5996">
<rect width="18" height="18" fill="white"/>
</clipPath>
</defs>
</svg>
